<svg width="70" height="48" viewBox="0 0 70 48" fill="none" xmlns="http://www.w3.org/2000/svg">
<path opacity="0.4" d="M54.1668 18.25V32.5483C54.1668 36.9375 50.6018 40.4833 46.2127 40.4833H23.7877C19.3985 40.4833 15.8335 36.9375 15.8335 32.5483V18.25H54.1668Z" fill="#292D32"/>
<path d="M54.1668 15.4517V18.2501H15.8335V15.4517C15.8335 11.0626 19.3985 7.51672 23.7877 7.51672H46.2127C50.6018 7.51672 54.1668 11.0626 54.1668 15.4517Z" fill="#292D32"/>
<path d="M27.3333 34.0625H23.5C22.7142 34.0625 22.0625 33.4108 22.0625 32.625C22.0625 31.8392 22.7142 31.1875 23.5 31.1875H27.3333C28.1192 31.1875 28.7708 31.8392 28.7708 32.625C28.7708 33.4108 28.1192 34.0625 27.3333 34.0625Z" fill="#292D32"/>
<path d="M39.7917 34.0625H32.125C31.3392 34.0625 30.6875 33.4108 30.6875 32.625C30.6875 31.8392 31.3392 31.1875 32.125 31.1875H39.7917C40.5775 31.1875 41.2292 31.8392 41.2292 32.625C41.2292 33.4108 40.5775 34.0625 39.7917 34.0625Z" fill="#292D32"/>
</svg>
