<svg width="24" height="24" viewBox="0 0 24 24" fill="none" xmlns="http://www.w3.org/2000/svg">
<path opacity="0.4" d="M16.19 2H7.82C4.17 2 2 4.17 2 7.81V16.18C2 19.82 4.17 21.99 7.81 21.99H16.18C19.82 21.99 21.99 19.82 21.99 16.18V7.81C22 4.17 19.83 2 16.19 2Z" fill="#7356C0"/>
<path d="M17.3509 9.05L15.0109 16.59C14.4509 18.38 11.9409 18.41 11.3509 16.63L10.651 14.56C10.461 13.99 10.0109 13.53 9.44095 13.35L7.36095 12.65C5.59095 12.06 5.62095 9.52999 7.41095 8.98999L14.951 6.64C16.431 6.19 17.8209 7.58 17.3509 9.05Z" fill="#7356C0"/>
</svg>
