<svg width="16" height="16" viewBox="0 0 16 16" fill="none" xmlns="http://www.w3.org/2000/svg">
<path d="M7.02767 14.6266C6.87434 14.6266 6.72766 14.5599 6.62767 14.4266L5.95433 13.5266C5.81433 13.3399 5.62767 13.2332 5.42767 13.2199C5.22101 13.2066 5.02766 13.2999 4.86766 13.4666C3.90099 14.4999 3.16766 14.4133 2.81433 14.2799C2.45433 14.1399 1.84766 13.6799 1.84766 12.1999V4.69326C1.84766 1.73326 2.70099 0.833252 5.49432 0.833252H10.5277C13.321 0.833252 14.1743 1.73326 14.1743 4.69326V7.53324C14.1743 7.80658 13.9477 8.03324 13.6743 8.03324C13.401 8.03324 13.1743 7.80658 13.1743 7.53324V4.69326C13.1743 2.28659 12.7543 1.83325 10.5277 1.83325H5.49432C3.26766 1.83325 2.84766 2.28659 2.84766 4.69326V12.1999C2.84766 12.8999 3.02099 13.2866 3.18099 13.3466C3.30099 13.3932 3.62767 13.3266 4.13434 12.7866C4.501 12.3999 4.981 12.1932 5.481 12.2199C5.97433 12.2466 6.441 12.5066 6.75433 12.9266L7.43433 13.8266C7.60099 14.0466 7.55433 14.3599 7.33433 14.5266C7.23433 14.5999 7.12767 14.6266 7.02767 14.6266Z" fill="#2E3A59"/>
<path d="M10.6654 5.16675H5.33203C5.0587 5.16675 4.83203 4.94008 4.83203 4.66675C4.83203 4.39341 5.0587 4.16675 5.33203 4.16675H10.6654C10.9387 4.16675 11.1654 4.39341 11.1654 4.66675C11.1654 4.94008 10.9387 5.16675 10.6654 5.16675Z" fill="#2E3A59"/>
<path d="M10 7.83325H6C5.72667 7.83325 5.5 7.60659 5.5 7.33325C5.5 7.05992 5.72667 6.83325 6 6.83325H10C10.2733 6.83325 10.5 7.05992 10.5 7.33325C10.5 7.60659 10.2733 7.83325 10 7.83325Z" fill="#2E3A59"/>
<path d="M9.88101 14.5201C9.62768 14.5201 9.38768 14.4267 9.21435 14.2534C9.00768 14.0467 8.91434 13.7467 8.96101 13.4334L9.08768 12.5334C9.12101 12.3001 9.26102 12.0201 9.42769 11.8534L11.7877 9.4934C12.1077 9.1734 12.421 9.00673 12.761 8.9734C13.1744 8.9334 13.5877 9.10673 13.9743 9.4934C14.361 9.88006 14.5343 10.2867 14.4943 10.7067C14.461 11.0401 14.2877 11.3601 13.9743 11.6801L11.6144 14.0401C11.4477 14.2067 11.1677 14.3467 10.9343 14.3801L10.0343 14.5067C9.981 14.5134 9.93435 14.5201 9.88101 14.5201ZM12.8743 9.96675C12.8677 9.96675 12.861 9.96675 12.8543 9.96675C12.761 9.97341 12.6343 10.0601 12.4943 10.2001L10.1344 12.5601C10.1144 12.5801 10.081 12.6467 10.081 12.6734L9.96101 13.5067L10.7943 13.3867C10.821 13.3801 10.8877 13.3467 10.9077 13.3267L13.2677 10.9667C13.4077 10.8201 13.4943 10.7001 13.501 10.6067C13.5143 10.4734 13.381 10.3134 13.2677 10.2001C13.161 10.0934 13.0077 9.96675 12.8743 9.96675Z" fill="#2E3A59"/>
<path d="M13.2791 12.1666C13.2324 12.1666 13.1857 12.16 13.1457 12.1466C12.2657 11.9 11.5658 11.2 11.3191 10.32C11.2458 10.0533 11.3991 9.77995 11.6657 9.69995C11.9324 9.62661 12.2058 9.77996 12.2791 10.0466C12.4324 10.5933 12.8657 11.0266 13.4124 11.1799C13.6791 11.2533 13.8324 11.5333 13.7591 11.8C13.6991 12.02 13.4991 12.1666 13.2791 12.1666Z" fill="#2E3A59"/>
</svg>
