<svg width="24" height="24" viewBox="0 0 24 24" fill="none" xmlns="http://www.w3.org/2000/svg">
<path fill-rule="evenodd" clip-rule="evenodd" d="M5.92059 2.11429L5.80059 2.22858V4.40266V6.57674L5.65997 6.84266C5.45596 7.22847 5.23935 7.84766 5.11155 8.41024L5 8.90127V14.9814V21.0616L5.11372 21.2822C5.23993 21.5269 5.49378 21.7711 5.76573 21.9092L5.94428 22H12H18.0557L18.2343 21.9092C18.5062 21.7711 18.7601 21.5269 18.8863 21.2822L19 21.0616V14.9814V8.90127L18.8885 8.41024C18.7606 7.84766 18.544 7.22847 18.34 6.84266L18.1994 6.57674V4.40266V2.22858L18.0794 2.11429L17.9594 2H16.568H15.1766L15.0663 2.10968L14.956 2.21932V3.05134C14.956 3.701 14.9448 3.87918 14.9047 3.8644C14.8765 3.85396 14.6822 3.80497 14.473 3.75554L14.0926 3.66565L14.0511 3.50729C13.874 2.83187 13.2576 2.23132 12.5597 2.05435C12.2891 1.98573 11.7109 1.98573 11.4403 2.05435C10.7432 2.23116 10.1258 2.83206 9.94939 3.50573L9.90833 3.66244L9.52746 3.75523C9.31799 3.80626 9.12355 3.85638 9.09531 3.86659C9.05528 3.88109 9.04399 3.70459 9.04399 3.06291V2.24059L8.9377 2.12031L8.8314 2H7.436H6.0406L5.92059 2.11429ZM8.18182 3.52121V4.26041L7.9868 4.36704C7.71001 4.51844 7.26336 4.84235 6.93988 5.1263L6.66276 5.36958V4.07582V2.78201H7.42229H8.18182V3.52121ZM17.3372 4.07582V5.36958L17.0601 5.1263C16.7366 4.84235 16.29 4.51844 16.0132 4.36704L15.8182 4.26041V3.52121V2.78201H16.5777H17.3372V4.07582ZM12.3787 2.86201C12.4628 2.88426 12.6101 2.95945 12.706 3.02909C12.8792 3.15492 13.1496 3.45896 13.1496 3.52798C13.1496 3.54913 12.6744 3.56403 12 3.56403C11.3256 3.56403 10.8504 3.54913 10.8504 3.52798C10.8504 3.46667 11.1095 3.1668 11.2662 3.04665C11.3482 2.98385 11.4867 2.90819 11.5741 2.87851C11.7641 2.81404 12.1662 2.80579 12.3787 2.86201ZM14.0117 4.49345C15.5246 4.84102 16.6571 5.66909 17.4531 7.00966C17.5248 7.13056 17.5836 7.24039 17.5836 7.25376C17.5836 7.26714 17.385 7.08825 17.1422 6.85627C16.3092 6.06014 15.3524 5.56481 14.1631 5.31406C13.7653 5.23019 13.6598 5.22588 12 5.22588C10.3402 5.22588 10.2347 5.23019 9.83686 5.31406C8.64755 5.56481 7.69075 6.06014 6.85777 6.85627C6.61505 7.08825 6.41642 7.26714 6.41642 7.25376C6.41642 7.24039 6.47517 7.13056 6.54694 7.00966C7.35356 5.65118 8.58671 4.76383 10.0499 4.48895C10.5649 4.39222 10.543 4.39312 12.1437 4.40344C13.5126 4.41228 13.6972 4.42119 14.0117 4.49345ZM14.1144 6.15496C15.1198 6.4052 15.8834 6.828 16.5812 7.52082C17.3248 8.25904 17.7728 9.08426 18.0464 10.2196C18.1323 10.5759 18.1341 10.6602 18.1477 14.7957L18.1615 19.0088H15.9192H13.677L13.557 19.1231C13.3531 19.3173 13.4091 19.654 13.6644 19.7694C13.7801 19.8217 14.0954 19.8299 15.9783 19.8299H18.1584L18.1582 20.3284C18.158 20.8767 18.1157 21.0034 17.885 21.1474C17.7774 21.2146 17.4942 21.218 12 21.218C6.50584 21.218 6.22264 21.2146 6.11499 21.1474C5.88426 21.0034 5.84197 20.8767 5.84181 20.3284L5.84164 19.8299H8.02166C9.90456 19.8299 10.2199 19.8217 10.3356 19.7694C10.5909 19.654 10.6469 19.3173 10.443 19.1231L10.323 19.0088H8.08078H5.83852L5.85232 14.7957C5.86587 10.6605 5.86775 10.5759 5.9536 10.2197C6.24165 9.02444 6.75641 8.12 7.57399 7.37267C8.36739 6.64743 9.24594 6.24246 10.4399 6.05161C10.4963 6.04258 11.2538 6.03914 12.1232 6.04399C13.6808 6.05263 13.7098 6.05423 14.1144 6.15496ZM11.7094 19.1231C11.5018 19.3208 11.5619 19.6542 11.8268 19.7739C12.191 19.9385 12.5648 19.5802 12.3916 19.2326C12.267 18.9825 11.9162 18.9262 11.7094 19.1231Z" fill="#2E3A59"/>
<rect x="7.87354" y="8.09962" width="8.29325" height="9.65787" rx="0.86217" stroke="#2E3A59" stroke-width="0.985337"/>
</svg>
