<svg width="16" height="16" viewBox="0 0 16 16" fill="none" xmlns="http://www.w3.org/2000/svg">
<path opacity="0.4" d="M4.77994 10.0189L1.96131 11.9095C1.87758 11.5786 1.83301 11.207 1.83301 10.7933V5.20667C1.83301 4.09277 2.1631 3.26368 2.71323 2.71355C3.26335 2.16343 4.09244 1.83333 5.20634 1.83333H10.793C11.9069 1.83333 12.736 2.16343 13.2861 2.71355C13.8362 3.26368 14.1663 4.09277 14.1663 5.20667V8.17811L13.9055 7.95405C13.9055 7.95404 13.9055 7.95404 13.9055 7.95403C13.1981 7.34643 12.0813 7.34643 11.3739 7.95405L8.60072 10.3339L8.60055 10.334C8.26792 10.6198 7.70476 10.6198 7.37214 10.334L7.37221 10.334L7.36419 10.3274L7.14264 10.1449C6.49282 9.58247 5.49333 9.5378 4.78057 10.0185C4.78036 10.0186 4.78015 10.0188 4.77994 10.0189Z" fill="#7356C0" stroke="#7356C0"/>
<path d="M7.08642 5.33333C7.08642 5.93348 6.5999 6.42 5.99975 6.42C5.3996 6.42 4.91309 5.93348 4.91309 5.33333C4.91309 4.73318 5.3996 4.24667 5.99975 4.24667C6.5999 4.24667 7.08642 4.73318 7.08642 5.33333Z" fill="#7356C0" stroke="#7356C0"/>
<path d="M14.667 9.26667V10.7933C14.667 13.22 13.2204 14.6667 10.7937 14.6667H5.20703C3.50703 14.6667 2.28036 13.9533 1.70703 12.6867L1.78036 12.6333L5.06036 10.4333C5.5937 10.0733 6.34703 10.1133 6.82036 10.5267L7.04703 10.7133C7.56703 11.16 8.40703 11.16 8.92703 10.7133L11.7004 8.33333C12.2204 7.88667 13.0604 7.88667 13.5804 8.33333L14.667 9.26667Z" fill="#7356C0"/>
</svg>
