<svg width="54" height="45" viewBox="0 0 54 45" fill="none" xmlns="http://www.w3.org/2000/svg">
<path fill-rule="evenodd" clip-rule="evenodd" d="M43.9875 0.0281014C42.9724 0.224886 41.7346 0.782273 41.1264 1.31626C40.7692 1.62994 40.0852 1.83505 33.8694 3.49281L27.0067 5.32294L20.258 3.52308L13.5093 1.72321L6.95149 3.59531C1.84219 5.05403 0.350212 5.52028 0.196875 5.70672C0.011025 5.93242 0 7.02784 0 25.1781V44.4104L0.276187 44.6865C0.428062 44.8384 0.668475 44.9612 0.810562 44.9593C0.952537 44.9575 3.87326 44.1557 7.30102 43.1776L13.5333 41.3994L20.2669 43.1997L27.0004 45L33.7561 43.1982L40.5117 41.3965L46.7215 43.1761C50.1369 44.1549 53.0475 44.9572 53.1894 44.9593C53.3315 44.9612 53.5719 44.8384 53.7238 44.6865L54 44.4104V25.1606V5.9107L53.7469 5.66272C53.5878 5.50678 53.0494 5.2947 52.2982 5.09184L51.1026 4.76915L50.9654 4.30425C50.2517 1.88534 47.9041 0.112823 45.2812 0.0123497C44.7244 -0.00902766 44.1422 -0.00193945 43.9875 0.0281014ZM46.8483 2.18778C47.8471 2.65527 48.522 3.31178 48.9962 4.27725C49.9023 6.12223 49.5543 7.74691 47.6449 10.5876C46.7457 11.9254 45.1843 13.8531 45 13.8531C44.8157 13.8531 43.2543 11.9254 42.3551 10.5876C41.4389 9.22453 40.8292 7.99083 40.612 7.06024C40.1997 5.2938 41.1777 3.22773 42.8474 2.33764C43.7336 1.86532 44.2185 1.75843 45.253 1.80771C45.9282 1.83989 46.2879 1.92551 46.8483 2.18778ZM15.949 4.24214L18.2294 4.84622L17.2275 5.84826L16.2254 6.85029L15.5096 6.6076C12.5429 5.60197 9.22646 6.987 7.87387 9.79655C7.12057 11.361 7.0236 12.8389 7.56754 14.4611L7.83225 15.2505L6.84056 16.2377L5.84887 17.225L3.82444 15.2027L1.8 13.1804V10.0615V6.94255L2.22187 6.81699C5.21257 5.92657 13.4711 3.5907 13.5562 3.61117C13.6181 3.62602 14.6949 3.90989 15.949 4.24214ZM44.1 3.70523C43.5478 3.87929 42.6061 4.85455 42.4368 5.42769C42.1252 6.4826 42.3449 7.32363 43.1399 8.11876C43.935 8.91388 44.7759 9.13362 45.8307 8.82196C46.4487 8.63935 47.3806 7.7073 47.5632 7.08927C47.8748 6.03435 47.6551 5.19332 46.8601 4.3982C46.0684 3.60656 45.147 3.37523 44.1 3.70523ZM35.5503 6.65193L33.2464 8.9581L31.927 7.64204C31.2013 6.91814 30.6346 6.29808 30.6677 6.26399C30.7385 6.19108 37.4412 4.36771 37.6865 4.35466C37.7787 4.34982 36.8174 5.38358 35.5503 6.65193ZM27.7713 6.99037L28.599 6.79618L30.7592 8.9464C32.7021 10.8803 32.9573 11.0965 33.2962 11.0965C33.6367 11.0965 33.9133 10.8576 36.1711 8.61393L38.6693 6.13123L38.7479 6.82644C38.9053 8.21799 39.8196 10.1953 41.1851 12.0975L41.8634 13.0424L40.2816 14.6378C38.9773 15.9536 38.7 16.2905 38.7 16.5599C38.7 16.8417 39.6259 17.8129 45.45 23.6408L52.2 30.3949V32.9811V35.5674L44.184 27.5511C36.6849 20.0517 36.1432 19.5349 35.782 19.5349C35.4334 19.5349 35.2088 19.7195 33.4761 21.4284L31.5562 23.3219L30.6122 23.4517C27.8716 23.8286 25.6679 26.0327 25.2915 28.7731L25.1619 29.7173L23.0434 31.8616C21.1276 33.8008 20.925 34.0426 20.925 34.3894C20.925 34.7433 21.2269 35.0754 24.8286 38.6829C26.9756 40.8333 28.7095 42.6139 28.6818 42.6399C28.654 42.6659 28.2723 42.7879 27.8336 42.9111L27.036 43.135L25.1336 42.6332L23.2312 42.1313L20.925 39.846C19.6566 38.5892 18.5082 37.5049 18.373 37.4364C17.8514 37.1722 17.6559 37.2836 16.3141 38.609L15.001 39.9059L14.2224 39.7222L13.4437 39.5383L7.875 41.1293C4.81219 42.0044 2.23031 42.7463 2.1375 42.7779C2.04469 42.8095 4.33541 40.4648 7.22812 37.5674C12.3705 32.4167 12.4875 32.2897 12.4875 31.8597C12.4875 31.4328 12.3821 31.314 8.91562 27.8315C6.95104 25.8579 5.19907 24.167 5.02222 24.0738C4.48639 23.7917 4.18421 23.9635 2.95402 25.2497L1.80191 26.4545L1.8009 25.1715L1.8 23.8884L2.3625 23.2935C3.13987 22.4716 3.13987 22.1114 2.3625 21.2895L1.8 20.6946V18.1752V15.6559L3.65186 17.5053C6.01616 19.8666 5.82525 19.8345 7.51309 18.156L8.71875 16.9571L9.20419 17.6933L9.68962 18.4297L8.61356 19.5388C7.69939 20.4811 7.5375 20.7032 7.5375 21.0157C7.5375 21.3488 7.8921 21.7388 11.2759 25.1285C14.936 28.7951 15.0236 28.8735 15.4627 28.8735C15.9057 28.8735 15.9965 28.7882 22.9823 21.8133C26.8714 17.9303 30.1284 14.6114 30.22 14.4381C30.3144 14.2596 30.355 14.0159 30.3137 13.8756C30.2735 13.7394 28.5626 11.9445 26.5116 9.887C23.0353 6.39957 22.7558 6.14597 22.3895 6.14597C22.0313 6.14597 21.861 6.28649 20.4693 7.73115L18.942 9.31634L18.6532 8.94066C18.4944 8.73409 18.2274 8.41838 18.0598 8.23915L17.7552 7.9132L19.0092 6.65553L20.2632 5.39787L23.6035 6.29122L26.9437 7.18457L27.7713 6.99037ZM45.6238 5.6346C46.1819 6.19266 45.7865 7.15858 45 7.15858C44.5375 7.15858 44.1 6.72102 44.1 6.25848C44.1 5.79594 44.5375 5.35838 45 5.35838C45.2192 5.35838 45.4498 5.46043 45.6238 5.6346ZM51.8457 6.83207L52.2 6.95561V17.4363V27.9169L46.5481 22.2643L40.8961 16.6118L41.9608 15.5424L43.0256 14.4731L43.8159 15.3164C44.507 16.0537 44.6555 16.1597 44.9989 16.1596C45.3377 16.1596 45.4898 16.0555 46.109 15.4001C48.5846 12.7797 50.5707 9.69731 51.0384 7.74972C51.1389 7.33173 51.2372 6.92658 51.257 6.84917C51.3011 6.67669 51.3925 6.67399 51.8457 6.83207ZM15.3483 8.48847C16.3471 8.95596 17.022 9.61248 17.4962 10.5779C18.4023 12.4229 18.0543 14.0476 16.1449 16.8883C15.2457 18.2261 13.6843 20.1538 13.5 20.1538C13.3157 20.1538 11.7543 18.2261 10.8551 16.8883C9.93892 15.5252 9.32917 14.2915 9.11205 13.3609C8.69974 11.5945 9.6777 9.52843 11.3474 8.63834C12.2336 8.16601 12.7185 8.05913 13.753 8.10841C14.4282 8.14059 14.7879 8.22621 15.3483 8.48847ZM21.797 20.4065L15.4132 26.791L12.6003 23.9795C11.0532 22.4333 9.7875 21.115 9.7875 21.05C9.7875 20.9851 10.0167 20.707 10.2968 20.4321L10.806 19.9322L11.4454 20.6619C13.3518 22.8371 13.4921 22.8831 14.609 21.7008C16.3393 19.8693 18.0929 17.4465 18.9093 15.7597C19.5842 14.3652 19.8316 13.2778 19.7521 12.0551L19.6863 11.0448L21.064 9.66356L22.4418 8.28224L25.3114 11.1521L28.1808 14.022L21.797 20.4065ZM12.6 10.0059C12.0478 10.18 11.1061 11.1552 10.9368 11.7284C10.6252 12.7833 10.8449 13.6243 11.6399 14.4195C12.7781 15.5577 14.2219 15.5577 15.3601 14.4195C16.4594 13.32 16.4923 11.9213 15.4461 10.7576C14.718 9.94776 13.6662 9.66986 12.6 10.0059ZM14.1238 11.9353C14.6819 12.4934 14.2865 13.4593 13.5 13.4593C13.2808 13.4593 13.0502 13.3572 12.8762 13.1831C12.702 13.009 12.6 12.7783 12.6 12.5592C12.6 12.34 12.702 12.1094 12.8762 11.9353C13.0502 11.7611 13.2808 11.6591 13.5 11.6591C13.7191 11.6591 13.9498 11.7611 14.1238 11.9353ZM52.2 40.447C52.2 42.6819 52.1862 42.8475 52.0031 42.7985C51.8949 42.7694 49.2644 42.0221 46.1576 41.1379L40.509 39.53L35.8004 40.7837C33.2107 41.4733 30.9935 42.0374 30.8734 42.0374C30.7365 42.0374 29.2382 40.62 26.8581 38.2389L23.0613 34.4404L24.3405 33.1646L25.6198 31.8888L26.0746 32.8283C26.9049 34.5441 28.685 37.0102 30.3873 38.8027C31.0083 39.4567 31.1628 39.5622 31.5 39.5622C31.8375 39.5622 31.9905 39.4574 32.609 38.8027C35.1515 36.1115 37.0507 33.1378 37.5904 31.0032C38.2594 28.3572 36.9163 25.3932 34.4744 24.1274L33.7544 23.7542L34.7915 22.7124L35.8288 21.6708L44.0144 29.8567L52.2 38.0427V40.447ZM33.3483 25.5904C34.3471 26.0579 35.022 26.7144 35.4962 27.6798C36.4023 29.5248 36.0543 31.1495 34.1449 33.9902C33.2457 35.328 31.6843 37.2557 31.5 37.2557C31.3157 37.2557 29.7543 35.328 28.8551 33.9902C27.9389 32.6271 27.3292 31.3934 27.112 30.4628C26.6997 28.6964 27.6777 26.6303 29.3474 25.7402C30.2336 25.2679 30.7185 25.161 31.753 25.2103C32.4282 25.2425 32.7879 25.3281 33.3483 25.5904ZM7.51005 29.0148L10.3498 31.8564L6.07489 36.1306L1.8 40.4049V34.669V28.933L3.17644 27.553C3.93345 26.7941 4.57931 26.1732 4.6116 26.1732C4.644 26.1732 5.94821 27.4519 7.51005 29.0148ZM30.6 27.1078C30.0478 27.2819 29.1061 28.2571 28.9368 28.8303C28.6252 29.8852 28.8449 30.7262 29.6399 31.5213C30.2226 32.104 30.7924 32.3614 31.5 32.3614C32.894 32.3614 34.2 31.0552 34.2 29.6611C34.2 28.9534 33.9427 28.3835 33.3601 27.8008C32.5684 27.0091 31.647 26.7778 30.6 27.1078ZM32.1238 29.0372C32.298 29.2112 32.4 29.4419 32.4 29.6611C32.4 29.8802 32.298 30.1109 32.1238 30.285C31.9498 30.4591 31.7191 30.5612 31.5 30.5612C31.2808 30.5612 31.0502 30.4591 30.8762 30.285C30.702 30.1109 30.6 29.8802 30.6 29.6611C30.6 29.4419 30.702 29.2112 30.8762 29.0372C31.0502 28.863 31.2808 28.761 31.5 28.761C31.7191 28.761 31.9498 28.863 32.1238 29.0372ZM18.8468 40.3615C19.316 40.8396 19.5408 41.1365 19.4062 41.1004C19.2825 41.0672 18.7762 40.9325 18.2812 40.8009C17.7862 40.6694 17.3094 40.5376 17.2215 40.5082C17.1068 40.4697 17.1845 40.329 17.4975 40.0084C17.7371 39.763 17.9622 39.5622 17.9977 39.5622C18.0332 39.5622 18.4153 39.9219 18.8468 40.3615Z" fill="#B69EEA"/>
</svg>
