<svg width="24" height="24" viewBox="0 0 24 24" fill="none" xmlns="http://www.w3.org/2000/svg">
<path opacity="0.4" d="M5.73 3.35C6.2 3.28 6.74 3.25 7.5 3.25H16.5C17.25 3.25 17.8 3.28 18.24 3.34C21.59 3.71 22.25 5.7 22.25 9V15C22.25 18.3 21.59 20.29 18.27 20.65C17.8 20.72 17.26 20.75 16.5 20.75H7.5C6.75 20.75 6.2 20.72 5.76 20.66C2.41 20.29 1.75 18.31 1.75 15V9C1.75 5.7 2.41 3.71 5.73 3.35Z" fill="#8F9BB3"/>
<path d="M7 10.75H10.5C10.91 10.75 11.25 10.41 11.25 10C11.25 9.59 10.91 9.25 10.5 9.25H7C6.59 9.25 6.25 9.59 6.25 10C6.25 10.41 6.59 10.75 7 10.75Z" fill="#8F9BB3"/>
<path d="M13.8984 11C14.4484 11 14.8984 10.55 14.8984 10C14.8984 9.45 14.4584 9 13.8984 9H13.8884C13.3384 9 12.8884 9.45 12.8884 10C12.8884 10.55 13.3384 11 13.8984 11Z" fill="#8F9BB3"/>
<path d="M16.8984 11C17.4484 11 17.8984 10.55 17.8984 10C17.8984 9.45 17.4584 9 16.8984 9C16.3484 9 15.8984 9.45 15.8984 10C15.8984 10.55 16.3384 11 16.8984 11Z" fill="#8F9BB3"/>
<path d="M6.99828 16.25H16.9783C17.3883 16.25 17.7383 15.91 17.7383 15.5C17.7383 15.09 17.4083 14.75 16.9983 14.75H6.99828C6.58828 14.75 6.24828 15.09 6.24828 15.5C6.24828 15.91 6.58828 16.25 6.99828 16.25Z" fill="#8F9BB3"/>
</svg>
