<svg width="83" height="77" viewBox="0 0 83 77" fill="none" xmlns="http://www.w3.org/2000/svg">
<g opacity="0.48" filter="url(#filter0_f_2281_5737)">
<path d="M66.2568 19.4812C66.2568 31.0792 47.2568 23.9812 40.7568 57.4813C29.1588 57.4813 21.1553 66.0793 21.1553 54.4813C21.1553 42.8833 9.55636 28.9813 21.1543 28.9813C32.7523 28.9813 66.2568 7.88325 66.2568 19.4812Z" fill="#DBB840"/>
</g>
<path d="M34.48 37.79C35.48 37.79 36.2133 37.98 36.68 38.36C37.1533 38.7333 37.39 39.2467 37.39 39.9C37.39 40.3133 37.29 40.6867 37.09 41.02C36.8967 41.3467 36.6 41.6067 36.2 41.8C35.8067 41.9867 35.32 42.08 34.74 42.08C34.2467 42.08 33.77 42.0067 33.31 41.86C32.85 41.7067 32.47 41.4967 32.17 41.23L32.63 40.44C32.87 40.6667 33.1767 40.85 33.55 40.99C33.9233 41.1233 34.3167 41.19 34.73 41.19C35.2567 41.19 35.6633 41.08 35.95 40.86C36.2433 40.6333 36.39 40.3267 36.39 39.94C36.39 39.52 36.23 39.2033 35.91 38.99C35.59 38.77 35.0433 38.66 34.27 38.66H32.68L33.05 35H37V35.87H33.89L33.7 37.79H34.48ZM40.7122 39.53L39.6122 40.55V42H38.6522V34.58H39.6122V39.34L42.5022 36.7H43.6622L41.4322 38.89L43.8822 42H42.7022L40.7122 39.53ZM48.8199 38.9H46.9999V40.69H46.1599V38.9H44.3399V38.11H46.1599V36.31H46.9999V38.11H48.8199V38.9Z" fill="#93731C"/>
<defs>
<filter id="filter0_f_2281_5737" x="0" y="9.53674e-07" width="82.2559" height="76.5478" filterUnits="userSpaceOnUse" color-interpolation-filters="sRGB">
<feFlood flood-opacity="0" result="BackgroundImageFix"/>
<feBlend mode="normal" in="SourceGraphic" in2="BackgroundImageFix" result="shape"/>
<feGaussianBlur stdDeviation="8" result="effect1_foregroundBlur_2281_5737"/>
</filter>
</defs>
</svg>
