<svg width="32" height="32" viewBox="0 0 32 32" fill="none" xmlns="http://www.w3.org/2000/svg">
<rect width="32" height="32" rx="4" fill="#D02538"/>
<path d="M9 12H17.5C17.9644 12.0089 18.4222 11.8882 18.8218 11.6515C19.2215 11.4148 19.5473 11.0714 19.7627 10.6598C19.9782 10.2483 20.0747 9.78486 20.0414 9.32153C20.0082 8.85821 19.8465 8.41331 19.5745 8.03673C19.3026 7.66016 18.931 7.3668 18.5017 7.18957C18.0723 7.01234 17.602 6.95825 17.1436 7.03335C16.6852 7.10846 16.2568 7.30979 15.9064 7.61477C15.5561 7.91976 15.2976 8.31633 15.16 8.76" stroke="white" stroke-width="2" stroke-linecap="round" stroke-linejoin="round"/>
<path d="M7 16H22.5C22.9644 15.9911 23.4222 16.1118 23.8218 16.3485C24.2215 16.5852 24.5473 16.9286 24.7627 17.3402C24.9782 17.7517 25.0747 18.2151 25.0414 18.6785C25.0082 19.1418 24.8465 19.5867 24.5745 19.9633C24.3026 20.3398 23.931 20.6332 23.5017 20.8104C23.0723 20.9877 22.602 21.0418 22.1436 20.9667C21.6852 20.8915 21.2568 20.6902 20.9064 20.3852C20.5561 20.0802 20.2976 19.6837 20.16 19.24" stroke="white" stroke-width="2" stroke-linecap="round" stroke-linejoin="round"/>
<path d="M8 20H13.5C13.9644 19.9911 14.4222 20.1118 14.8218 20.3485C15.2215 20.5852 15.5473 20.9286 15.7627 21.3402C15.9782 21.7517 16.0747 22.2151 16.0414 22.6785C16.0082 23.1418 15.8465 23.5867 15.5745 23.9633C15.3026 24.3398 14.931 24.6332 14.5017 24.8104C14.0723 24.9877 13.602 25.0418 13.1436 24.9667C12.6852 24.8915 12.2568 24.6902 11.9064 24.3852C11.5561 24.0802 11.2976 23.6837 11.16 23.24" stroke="white" stroke-width="2" stroke-linecap="round" stroke-linejoin="round"/>
</svg>
