<svg width="32" height="32" viewBox="0 0 32 32" fill="none" xmlns="http://www.w3.org/2000/svg">
<rect width="32" height="32" rx="4" fill="#0198B5"/>
<path d="M16 20C18.2091 20 20 18.2091 20 16C20 13.7909 18.2091 12 16 12C13.7909 12 12 13.7909 12 16C12 18.2091 13.7909 20 16 20Z" stroke="white" stroke-width="2" stroke-linecap="round" stroke-linejoin="round"/>
<path d="M10.3 21.7L9.6 22.4M7 16H8H7ZM16 7V8V7ZM24 16H25H24ZM16 24V25V24ZM9.6 9.6L10.3 10.3L9.6 9.6ZM22.4 9.6L21.7 10.3L22.4 9.6ZM21.7 21.7L22.4 22.4L21.7 21.7Z" stroke="white" stroke-width="2" stroke-linecap="round" stroke-linejoin="round"/>
</svg>
