<svg width="14" height="14" viewBox="0 0 14 14" fill="none" xmlns="http://www.w3.org/2000/svg">
<path opacity="0.4" d="M12.3337 7C12.3337 9.94552 9.94585 12.3333 7.00033 12.3333C4.05481 12.3333 1.66699 9.94552 1.66699 7C1.66699 4.05448 4.05481 1.66667 7.00033 1.66667C9.94585 1.66667 12.3337 4.05448 12.3337 7Z" fill="#7356C0" stroke="#7356C0"/>
<mask id="path-2-inside-1_671_1319" fill="white">
<path d="M9.33366 6.5625H7.43783V4.66667C7.43783 4.4275 7.23949 4.22917 7.00033 4.22917C6.76116 4.22917 6.56283 4.4275 6.56283 4.66667V6.5625H4.66699C4.42783 6.5625 4.22949 6.76083 4.22949 7C4.22949 7.23917 4.42783 7.4375 4.66699 7.4375H6.56283V9.33333C6.56283 9.5725 6.76116 9.77083 7.00033 9.77083C7.23949 9.77083 7.43783 9.5725 7.43783 9.33333V7.4375H9.33366C9.57283 7.4375 9.77116 7.23917 9.77116 7C9.77116 6.76083 9.57283 6.5625 9.33366 6.5625Z"/>
</mask>
<path d="M9.33366 6.5625H7.43783V4.66667C7.43783 4.4275 7.23949 4.22917 7.00033 4.22917C6.76116 4.22917 6.56283 4.4275 6.56283 4.66667V6.5625H4.66699C4.42783 6.5625 4.22949 6.76083 4.22949 7C4.22949 7.23917 4.42783 7.4375 4.66699 7.4375H6.56283V9.33333C6.56283 9.5725 6.76116 9.77083 7.00033 9.77083C7.23949 9.77083 7.43783 9.5725 7.43783 9.33333V7.4375H9.33366C9.57283 7.4375 9.77116 7.23917 9.77116 7C9.77116 6.76083 9.57283 6.5625 9.33366 6.5625Z" fill="#7356C0"/>
<path d="M7.43783 6.5625H6.43783V7.5625H7.43783V6.5625ZM6.56283 6.5625V7.5625H7.56283V6.5625H6.56283ZM6.56283 7.4375H7.56283V6.4375H6.56283V7.4375ZM7.43783 7.4375V6.4375H6.43783V7.4375H7.43783ZM9.33366 5.5625H7.43783V7.5625H9.33366V5.5625ZM8.43783 6.5625V4.66667H6.43783V6.5625H8.43783ZM8.43783 4.66667C8.43783 3.87522 7.79178 3.22917 7.00033 3.22917V5.22917C6.68721 5.22917 6.43783 4.97979 6.43783 4.66667H8.43783ZM7.00033 3.22917C6.20887 3.22917 5.56283 3.87522 5.56283 4.66667H7.56283C7.56283 4.97979 7.31344 5.22917 7.00033 5.22917V3.22917ZM5.56283 4.66667V6.5625H7.56283V4.66667H5.56283ZM6.56283 5.5625H4.66699V7.5625H6.56283V5.5625ZM4.66699 5.5625C3.87554 5.5625 3.22949 6.20855 3.22949 7H5.22949C5.22949 7.31312 4.98011 7.5625 4.66699 7.5625V5.5625ZM3.22949 7C3.22949 7.79145 3.87554 8.4375 4.66699 8.4375V6.4375C4.98011 6.4375 5.22949 6.68688 5.22949 7H3.22949ZM4.66699 8.4375H6.56283V6.4375H4.66699V8.4375ZM5.56283 7.4375V9.33333H7.56283V7.4375H5.56283ZM5.56283 9.33333C5.56283 10.1248 6.20887 10.7708 7.00033 10.7708V8.77083C7.31344 8.77083 7.56283 9.02022 7.56283 9.33333H5.56283ZM7.00033 10.7708C7.79178 10.7708 8.43783 10.1248 8.43783 9.33333H6.43783C6.43783 9.02022 6.68721 8.77083 7.00033 8.77083V10.7708ZM8.43783 9.33333V7.4375H6.43783V9.33333H8.43783ZM7.43783 8.4375H9.33366V6.4375H7.43783V8.4375ZM9.33366 8.4375C10.1251 8.4375 10.7712 7.79145 10.7712 7H8.77116C8.77116 6.68688 9.02054 6.4375 9.33366 6.4375V8.4375ZM10.7712 7C10.7712 6.20855 10.1251 5.5625 9.33366 5.5625V7.5625C9.02054 7.5625 8.77116 7.31312 8.77116 7H10.7712Z" fill="#7356C0" mask="url(#path-2-inside-1_671_1319)"/>
</svg>
