<svg width="20" height="20" viewBox="0 0 20 20" fill="none" xmlns="http://www.w3.org/2000/svg">
<path d="M10.0003 13.5C9.54495 13.5 9.09019 13.3245 8.74548 12.9798L3.31215 7.54642C3.29062 7.52489 3.27734 7.49416 3.27734 7.4583C3.27734 7.42245 3.29062 7.39172 3.31215 7.37019C3.33367 7.34866 3.36441 7.33539 3.40026 7.33539C3.43611 7.33539 3.46685 7.34866 3.48837 7.37019L8.92171 12.8035C9.51697 13.3988 10.4836 13.3988 11.0788 12.8035L16.5121 7.37019C16.5337 7.34866 16.5644 7.33539 16.6003 7.33539C16.6361 7.33539 16.6668 7.34866 16.6884 7.37019C16.7099 7.39172 16.7232 7.42245 16.7232 7.4583C16.7232 7.49416 16.7099 7.52489 16.6884 7.54642L11.255 12.9798C10.9103 13.3245 10.4556 13.5 10.0003 13.5Z" fill="#292D32" stroke="#8F9BB3"/>
</svg>
