<svg width="27" height="24" viewBox="0 0 27 24" fill="none" xmlns="http://www.w3.org/2000/svg">
<path d="M0.541016 17.4727L9.25375 2.38068L16.8035 6.73973L8.09183 21.8317L0.541016 17.4727Z" fill="#FBBC04"/>
<path d="M25.5887 17.4202L16.8706 2.32276C15.7452 0.194192 13.1081 -0.619042 10.9795 0.506397C8.85098 1.63183 8.03882 4.26894 9.16318 6.39751C9.21253 6.49085 9.2651 6.58205 9.32089 6.67217L18.039 21.7696C19.2149 23.8702 21.8713 24.6202 23.9719 23.4443C26.0726 22.2684 26.8225 19.612 25.6467 17.5114C25.6274 17.477 25.6081 17.4438 25.5887 17.4105V17.4202Z" fill="#4285F4"/>
<path d="M4.35905 23.9775C6.76649 23.9775 8.7181 22.0259 8.7181 19.6185C8.7181 17.211 6.76649 15.2594 4.35905 15.2594C1.95161 15.2594 0 17.211 0 19.6185C0 22.0259 1.95161 23.9775 4.35905 23.9775Z" fill="#34A853"/>
</svg>
