<svg width="27" height="24" viewBox="0 0 27 24" fill="none" xmlns="http://www.w3.org/2000/svg">
<path d="M3.32819 24C2.37007 24 1.57164 23.6967 0.932901 23.0901C0.310967 22.4667 0 21.6747 0 20.7143C0 19.7538 0.310967 18.9787 0.932901 18.389C1.57164 17.7824 2.37007 17.4791 3.32819 17.4791C4.2863 17.4791 5.07633 17.7824 5.69826 18.389C6.337 18.9787 6.65637 19.7538 6.65637 20.7143C6.65637 21.6747 6.337 22.4667 5.69826 23.0901C5.07633 23.6967 4.2863 24 3.32819 24Z" fill="#3F2B89"/>
<path d="M11.9479 23.8089L3.6274 0H8.67011L16.9906 23.8089H11.9479Z" fill="#3F2B89"/>
<path d="M21.0336 23.8089L12.7131 0H17.7558L26.0763 23.8089H21.0336Z" fill="#3F2B89"/>
</svg>
