<svg width="72" height="70" viewBox="0 0 72 70" fill="none" xmlns="http://www.w3.org/2000/svg">
<path d="M72 68.25L56 68.25L56 69.75L72 69.75L72 68.25ZM36.75 49L36.75 21L35.25 21L35.25 49L36.75 49ZM16 0.250003L-1.61908e-06 0.250001L-1.75021e-06 1.75L16 1.75L16 0.250003ZM36.75 21C36.75 9.5401 27.4599 0.250004 16 0.250003L16 1.75C26.6315 1.75 35.25 10.3685 35.25 21L36.75 21ZM56 68.25C45.3685 68.25 36.75 59.6315 36.75 49L35.25 49C35.25 60.4599 44.5401 69.75 56 69.75L56 68.25Z" fill="url(#paint0_linear_614_2011)"/>
<defs>
<linearGradient id="paint0_linear_614_2011" x1="72" y1="35" x2="-5.19346e-06" y2="35" gradientUnits="userSpaceOnUse">
<stop stop-color="#EDF1F7"/>
<stop offset="1" stop-color="#EADFFC"/>
</linearGradient>
</defs>
</svg>
