<svg width="24" height="24" viewBox="0 0 24 24" fill="none" xmlns="http://www.w3.org/2000/svg">
<circle cx="12" cy="12" r="12" fill="#7356C0"/>
<path d="M7.16409 18C6.68504 18 6.28582 17.8484 5.96645 17.5451C5.65548 17.2333 5.5 16.8374 5.5 16.3571C5.5 15.8769 5.65548 15.4894 5.96645 15.1945C6.28582 14.8912 6.68504 14.7395 7.16409 14.7395C7.64315 14.7395 8.03816 14.8912 8.34913 15.1945C8.6685 15.4894 8.82819 15.8769 8.82819 16.3571C8.82819 16.8374 8.6685 17.2333 8.34913 17.5451C8.03816 17.8484 7.64315 18 7.16409 18Z" fill="white"/>
<path d="M11.4739 17.9044L7.3137 6H9.83505L13.9953 17.9044H11.4739Z" fill="white"/>
<path d="M16.0168 17.9044L11.8566 6H14.3779L18.5382 17.9044H16.0168Z" fill="white"/>
</svg>
